<svg width="1104" height="1104" viewBox="0 0 1104 1104" fill="none" xmlns="http://www.w3.org/2000/svg">
<rect width="1104" height="1104" rx="90" fill="#A1CCA5"/>
<path d="M121.52 946.84C113.92 934.6 110.96 922.84 110.96 909.4C110.96 896.44 113.92 884.52 121.52 872.52H116.32C108.16 883.4 103.76 896.92 103.76 909.4C103.76 923.4 108.64 934.84 116.32 946.84H121.52ZM147.583 874.28H142.383C140.863 882.84 133.823 884.92 126.063 884.92V890.36H140.783V931H147.583V874.28ZM166.356 946.84C174.516 935.96 178.916 922.44 178.916 909.96C178.916 895.96 174.036 884.52 166.356 872.52H161.156C168.756 884.76 171.716 896.52 171.716 909.96C171.716 922.92 168.756 934.84 161.156 946.84H166.356ZM209.645 931H216.445V895.64H224.445V889.64H216.445V883.88C216.445 880.28 218.365 879.24 221.645 879.24C222.845 879.24 224.285 879.4 225.485 879.8V873.88C224.205 873.48 222.365 873.24 221.085 873.24C213.645 873.24 209.645 876.76 209.645 883.48V889.64H202.685V895.64H209.645V931ZM226.677 910.36C226.677 922.44 233.637 931.96 246.757 931.96C259.877 931.96 266.837 922.44 266.837 910.36C266.837 898.2 259.877 888.68 246.757 888.68C233.637 888.68 226.677 898.2 226.677 910.36ZM233.877 910.36C233.877 900.28 239.637 894.68 246.757 894.68C253.877 894.68 259.637 900.28 259.637 910.36C259.637 920.36 253.877 925.96 246.757 925.96C239.637 925.96 233.877 920.36 233.877 910.36ZM282.694 877.24H275.894V889.64H268.854V895.64H275.894V921.96C275.894 929.56 278.694 931 285.734 931H290.934V925H287.814C283.574 925 282.694 924.44 282.694 921.32V895.64H290.934V889.64H282.694V877.24ZM294.649 910.36C294.649 922.44 301.609 931.96 314.729 931.96C327.849 931.96 334.809 922.44 334.809 910.36C334.809 898.2 327.849 888.68 314.729 888.68C301.609 888.68 294.649 898.2 294.649 910.36ZM301.849 910.36C301.849 900.28 307.609 894.68 314.729 894.68C321.849 894.68 327.609 900.28 327.609 910.36C327.609 920.36 321.849 925.96 314.729 925.96C307.609 925.96 301.849 920.36 301.849 910.36ZM357.866 925.48C348.906 925.48 346.186 917.16 346.186 909.72C346.186 901.8 349.706 894.68 358.426 894.68C366.986 894.68 370.186 902.2 370.186 909.48C370.186 917.24 366.826 925.48 357.866 925.48ZM376.906 889.64H370.506V895.56H370.426C367.946 891 363.306 888.68 358.106 888.68C343.786 888.68 338.986 900.76 338.986 910.52C338.986 921.8 345.146 931.48 357.466 931.48C362.666 931.48 368.106 929 370.346 923.96H370.506V926.68C370.506 935.96 366.986 942.36 358.106 942.36C353.626 942.36 347.706 940.6 347.386 935.64H340.586C340.986 944.68 349.946 947.8 357.706 947.8C370.746 947.8 376.906 940.92 376.906 927.48V889.64ZM385.324 931H392.124V912.6C392.124 902.12 396.124 895.88 407.084 895.88V888.68C399.724 888.44 395.164 891.72 391.884 898.36H391.724V889.64H385.324V931ZM436.204 916.6C436.204 920.36 432.524 925.96 423.564 925.96C419.404 925.96 415.564 924.36 415.564 919.88C415.564 914.84 419.404 913.24 423.884 912.44C428.444 911.64 433.564 911.56 436.204 909.64V916.6ZM447.244 925.56C446.364 925.88 445.724 925.96 445.164 925.96C443.004 925.96 443.004 924.52 443.004 921.32V900.04C443.004 890.36 434.924 888.68 427.484 888.68C418.284 888.68 410.364 892.28 409.964 902.52H416.764C417.084 896.44 421.324 894.68 427.084 894.68C431.404 894.68 436.284 895.64 436.284 901.56C436.284 906.68 429.884 906.2 422.364 907.64C415.324 909 408.364 911 408.364 920.36C408.364 928.6 414.524 931.96 422.044 931.96C427.804 931.96 432.844 929.96 436.604 925.56C436.604 930.04 438.844 931.96 442.364 931.96C444.524 931.96 446.044 931.56 447.244 930.84V925.56ZM454.773 931H461.573V895.64H469.573V889.64H461.573V883.88C461.573 880.28 463.493 879.24 466.773 879.24C467.973 879.24 469.413 879.4 470.613 879.8V873.88C469.333 873.48 467.493 873.24 466.213 873.24C458.773 873.24 454.773 876.76 454.773 883.48V889.64H447.813V895.64H454.773V931ZM481.245 931V889.64H474.445V931H481.245ZM472.925 883.96H478.045L488.525 872.52H479.805L472.925 883.96ZM515.779 916.6C515.779 920.36 512.099 925.96 503.139 925.96C498.979 925.96 495.139 924.36 495.139 919.88C495.139 914.84 498.979 913.24 503.459 912.44C508.019 911.64 513.139 911.56 515.779 909.64V916.6ZM526.819 925.56C525.939 925.88 525.299 925.96 524.739 925.96C522.579 925.96 522.579 924.52 522.579 921.32V900.04C522.579 890.36 514.499 888.68 507.059 888.68C497.859 888.68 489.939 892.28 489.539 902.52H496.339C496.659 896.44 500.899 894.68 506.659 894.68C510.979 894.68 515.859 895.64 515.859 901.56C515.859 906.68 509.459 906.2 501.939 907.64C494.899 909 487.939 911 487.939 920.36C487.939 928.6 494.099 931.96 501.619 931.96C507.379 931.96 512.419 929.96 516.179 925.56C516.179 930.04 518.419 931.96 521.939 931.96C524.099 931.96 525.619 931.56 526.819 930.84V925.56Z" fill="#4A7B4F"/>
</svg>
