<svg width="1104" height="1104" viewBox="0 0 1104 1104" fill="none" xmlns="http://www.w3.org/2000/svg">
<rect width="1104" height="1104" rx="90" fill="#709775"/>
<path d="M121.52 946.84C113.92 934.6 110.96 922.84 110.96 909.4C110.96 896.44 113.92 884.52 121.52 872.52H116.32C108.16 883.4 103.76 896.92 103.76 909.4C103.76 923.4 108.64 934.84 116.32 946.84H121.52ZM136.543 904.36C137.823 904.2 139.263 904.12 140.623 904.12C147.343 904.12 152.703 907.88 152.703 915C152.703 921.88 147.023 925.96 140.383 925.96C132.623 925.96 128.543 920.84 128.303 913.48H121.503C121.263 925.16 128.863 931.96 140.383 931.96C151.023 931.96 159.903 926.04 159.903 914.68C159.903 907.88 156.543 902.44 149.663 900.92V900.76C153.983 898.76 157.503 894.44 157.503 889.48C157.503 879 150.063 874.28 140.223 874.28C128.863 874.28 123.103 881.8 122.703 892.6H129.503C129.583 885.96 132.783 880.28 140.223 880.28C145.983 880.28 150.303 883.48 150.303 889.4C150.303 895.56 145.263 898.68 139.503 898.68C138.543 898.68 137.583 898.68 136.543 898.6V904.36ZM166.356 946.84C174.516 935.96 178.916 922.44 178.916 909.96C178.916 895.96 174.036 884.52 166.356 872.52H161.156C168.756 884.76 171.716 896.52 171.716 909.96C171.716 922.92 168.756 934.84 161.156 946.84H166.356ZM223.485 925.48C214.525 925.48 211.805 917.16 211.805 909.72C211.805 901.8 215.325 894.68 224.045 894.68C232.605 894.68 235.805 902.2 235.805 909.48C235.805 917.24 232.445 925.48 223.485 925.48ZM242.525 889.64H236.125V895.56H236.045C233.565 891 228.925 888.68 223.725 888.68C209.405 888.68 204.605 900.76 204.605 910.52C204.605 921.8 210.765 931.48 223.085 931.48C228.285 931.48 233.725 929 235.965 923.96H236.125V926.68C236.125 935.96 232.605 942.36 223.725 942.36C219.245 942.36 213.325 940.6 213.005 935.64H206.205C206.605 944.68 215.565 947.8 223.325 947.8C236.365 947.8 242.525 940.92 242.525 927.48V889.64ZM250.943 931H257.743V912.6C257.743 902.12 261.743 895.88 272.703 895.88V888.68C265.343 888.44 260.783 891.72 257.503 898.36H257.343V889.64H250.943V931ZM301.823 916.6C301.823 920.36 298.143 925.96 289.183 925.96C285.023 925.96 281.183 924.36 281.183 919.88C281.183 914.84 285.023 913.24 289.503 912.44C294.063 911.64 299.183 911.56 301.823 909.64V916.6ZM312.863 925.56C311.983 925.88 311.343 925.96 310.783 925.96C308.623 925.96 308.623 924.52 308.623 921.32V900.04C308.623 890.36 300.543 888.68 293.103 888.68C283.903 888.68 275.983 892.28 275.583 902.52H282.383C282.703 896.44 286.943 894.68 292.703 894.68C297.023 894.68 301.903 895.64 301.903 901.56C301.903 906.68 295.503 906.2 287.983 907.64C280.943 909 273.983 911 273.983 920.36C273.983 928.6 280.143 931.96 287.663 931.96C293.423 931.96 298.463 929.96 302.223 925.56C302.223 930.04 304.463 931.96 307.983 931.96C310.143 931.96 311.663 931.56 312.863 930.84V925.56ZM287.743 883.96H292.863L303.343 872.52H294.623L287.743 883.96ZM320.392 931H327.192V895.64H335.192V889.64H327.192V883.88C327.192 880.28 329.112 879.24 332.392 879.24C333.592 879.24 335.032 879.4 336.232 879.8V873.88C334.952 873.48 333.112 873.24 331.832 873.24C324.392 873.24 320.392 876.76 320.392 883.48V889.64H313.432V895.64H320.392V931ZM340.064 931H346.864V889.64H340.064V931ZM346.864 873.88H340.064V882.2H346.864V873.88ZM390.918 902.92C389.958 893.08 382.438 888.68 373.078 888.68C359.958 888.68 353.558 898.44 353.558 910.84C353.558 923.16 360.278 931.96 372.918 931.96C383.318 931.96 389.638 925.96 391.158 915.88H384.198C383.318 922.12 379.398 925.96 372.838 925.96C364.198 925.96 360.758 918.44 360.758 910.84C360.758 902.44 363.798 894.68 373.638 894.68C379.238 894.68 382.838 897.72 383.878 902.92H390.918ZM394.927 910.36C394.927 922.44 401.887 931.96 415.007 931.96C428.127 931.96 435.087 922.44 435.087 910.36C435.087 898.2 428.127 888.68 415.007 888.68C401.887 888.68 394.927 898.2 394.927 910.36ZM402.127 910.36C402.127 900.28 407.887 894.68 415.007 894.68C422.127 894.68 427.887 900.28 427.887 910.36C427.887 920.36 422.127 925.96 415.007 925.96C407.887 925.96 402.127 920.36 402.127 910.36Z" fill="#3D5940"/>
</svg>
