<svg width="1104" height="1104" viewBox="0 0 1104 1104" fill="none" xmlns="http://www.w3.org/2000/svg">
<rect width="1104" height="1104" rx="90" fill="#8FB996"/>
<path d="M121.52 946.84C113.92 934.6 110.96 922.84 110.96 909.4C110.96 896.44 113.92 884.52 121.52 872.52H116.32C108.16 883.4 103.76 896.92 103.76 909.4C103.76 923.4 108.64 934.84 116.32 946.84H121.52ZM129.423 894.36C129.183 887.56 132.543 880.28 140.463 880.28C146.463 880.28 151.423 884.36 151.423 890.52C151.423 898.36 146.543 901.88 136.943 907.8C128.943 912.76 122.143 917.56 121.023 931H158.063V925H128.943C130.303 917.96 137.743 914.36 144.863 910.04C151.903 905.64 158.623 900.6 158.623 890.6C158.623 880.04 150.783 874.28 140.863 874.28C128.863 874.28 122.063 882.84 122.623 894.36H129.423ZM166.356 946.84C174.516 935.96 178.916 922.44 178.916 909.96C178.916 895.96 174.036 884.52 166.356 872.52H161.156C168.756 884.76 171.716 896.52 171.716 909.96C171.716 922.92 168.756 934.84 161.156 946.84H166.356ZM207.245 931H214.045V889.64H207.245V931ZM214.045 873.88H207.245V882.2H214.045V873.88ZM223.379 931H230.179V873.88H223.379V931ZM273.354 889.64H266.554V913C266.554 920.44 262.554 925.96 254.314 925.96C249.114 925.96 245.914 922.68 245.914 917.64V889.64H239.114V916.84C239.114 925.72 242.474 931.96 253.354 931.96C259.274 931.96 263.914 929.56 266.794 924.44H266.954V931H273.354V889.64ZM279.327 917.96C279.727 928.2 287.567 931.96 296.847 931.96C305.247 931.96 314.447 928.76 314.447 918.92C314.447 910.92 307.727 908.68 300.927 907.16C294.607 905.64 287.407 904.84 287.407 899.96C287.407 895.8 292.127 894.68 296.207 894.68C300.687 894.68 305.327 896.36 305.807 901.64H312.607C312.047 891.56 304.767 888.68 295.647 888.68C288.447 888.68 280.207 892.12 280.207 900.44C280.207 908.36 287.007 910.6 293.727 912.12C300.527 913.64 307.247 914.52 307.247 919.8C307.247 925 301.487 925.96 297.247 925.96C291.647 925.96 286.367 924.04 286.127 917.96H279.327ZM329.807 877.24H323.007V889.64H315.967V895.64H323.007V921.96C323.007 929.56 325.807 931 332.847 931H338.047V925H334.927C330.687 925 329.807 924.44 329.807 921.32V895.64H338.047V889.64H329.807V877.24ZM343.761 931H350.561V912.6C350.561 902.12 354.561 895.88 365.521 895.88V888.68C358.161 888.44 353.601 891.72 350.321 898.36H350.161V889.64H343.761V931ZM394.642 916.6C394.642 920.36 390.962 925.96 382.002 925.96C377.842 925.96 374.002 924.36 374.002 919.88C374.002 914.84 377.842 913.24 382.322 912.44C386.882 911.64 392.002 911.56 394.642 909.64V916.6ZM405.682 925.56C404.802 925.88 404.162 925.96 403.602 925.96C401.442 925.96 401.442 924.52 401.442 921.32V900.04C401.442 890.36 393.362 888.68 385.922 888.68C376.722 888.68 368.802 892.28 368.402 902.52H375.202C375.522 896.44 379.762 894.68 385.522 894.68C389.842 894.68 394.722 895.64 394.722 901.56C394.722 906.68 388.322 906.2 380.802 907.64C373.762 909 366.802 911 366.802 920.36C366.802 928.6 372.962 931.96 380.482 931.96C386.242 931.96 391.282 929.96 395.042 925.56C395.042 930.04 397.282 931.96 400.802 931.96C402.962 931.96 404.482 931.56 405.682 930.84V925.56ZM445.531 902.92C444.571 893.08 437.051 888.68 427.691 888.68C414.571 888.68 408.171 898.44 408.171 910.84C408.171 923.16 414.891 931.96 427.531 931.96C437.931 931.96 444.251 925.96 445.771 915.88H438.811C437.931 922.12 434.011 925.96 427.451 925.96C418.811 925.96 415.371 918.44 415.371 910.84C415.371 902.44 418.411 894.68 428.251 894.68C433.851 894.68 437.451 897.72 438.491 902.92H445.531ZM452.179 931H458.979V889.64H452.179V931ZM458.979 873.88H452.179V882.2H458.979V873.88ZM465.674 910.36C465.674 922.44 472.634 931.96 485.754 931.96C498.874 931.96 505.834 922.44 505.834 910.36C505.834 898.2 498.874 888.68 485.754 888.68C472.634 888.68 465.674 898.2 465.674 910.36ZM472.874 910.36C472.874 900.28 478.634 894.68 485.754 894.68C492.874 894.68 498.634 900.28 498.634 910.36C498.634 920.36 492.874 925.96 485.754 925.96C478.634 925.96 472.874 920.36 472.874 910.36ZM480.874 883.96H485.994L496.474 872.52H487.754L480.874 883.96ZM512.251 931H519.051V907.64C519.051 900.2 523.051 894.68 531.291 894.68C536.491 894.68 539.691 897.96 539.691 903V931H546.491V903.8C546.491 894.92 543.131 888.68 532.251 888.68C526.331 888.68 521.691 891.08 518.811 896.2H518.651V889.64H512.251V931Z" fill="#3E7547"/>
</svg>
