<svg width="1104" height="1104" viewBox="0 0 1104 1104" fill="none" xmlns="http://www.w3.org/2000/svg">
<rect width="1104" height="1104" rx="90" fill="#415D43"/>
<path d="M121.52 946.84C113.92 934.6 110.96 922.84 110.96 909.4C110.96 896.44 113.92 884.52 121.52 872.52H116.32C108.16 883.4 103.76 896.92 103.76 909.4C103.76 923.4 108.64 934.84 116.32 946.84H121.52ZM152.623 874.28H147.183L121.343 911.16V917.72H146.223V931H152.623V917.72H160.303V911.72H152.623V874.28ZM127.183 911.72L146.063 883.96H146.223V911.72H127.183ZM166.356 946.84C174.516 935.96 178.916 922.44 178.916 909.96C178.916 895.96 174.036 884.52 166.356 872.52H161.156C168.756 884.76 171.716 896.52 171.716 909.96C171.716 922.92 168.756 934.84 161.156 946.84H166.356ZM204.205 917.96C204.605 928.2 212.445 931.96 221.725 931.96C230.125 931.96 239.325 928.76 239.325 918.92C239.325 910.92 232.605 908.68 225.805 907.16C219.485 905.64 212.285 904.84 212.285 899.96C212.285 895.8 217.005 894.68 221.085 894.68C225.565 894.68 230.205 896.36 230.685 901.64H237.485C236.925 891.56 229.645 888.68 220.525 888.68C213.325 888.68 205.085 892.12 205.085 900.44C205.085 908.36 211.885 910.6 218.605 912.12C225.405 913.64 232.125 914.52 232.125 919.8C232.125 925 226.365 925.96 222.125 925.96C216.525 925.96 211.245 924.04 211.005 917.96H204.205ZM243.005 910.36C243.005 922.44 249.965 931.96 263.085 931.96C276.205 931.96 283.165 922.44 283.165 910.36C283.165 898.2 276.205 888.68 263.085 888.68C249.965 888.68 243.005 898.2 243.005 910.36ZM250.205 910.36C250.205 900.28 255.965 894.68 263.085 894.68C270.205 894.68 275.965 900.28 275.965 910.36C275.965 920.36 270.205 925.96 263.085 925.96C255.965 925.96 250.205 920.36 250.205 910.36ZM289.582 931H296.382V907.64C296.382 900.2 300.382 894.68 308.622 894.68C313.822 894.68 317.022 897.96 317.022 903V931H323.822V903.8C323.822 894.92 320.462 888.68 309.582 888.68C303.662 888.68 299.022 891.08 296.142 896.2H295.982V889.64H289.582V931ZM332.836 931H339.636V889.64H332.836V931ZM339.636 873.88H332.836V882.2H339.636V873.88ZM385.53 873.88H378.73V895.16H378.57C375.53 890.28 369.45 888.68 365.21 888.68C352.57 888.68 346.33 898.52 346.33 910.2C346.33 921.88 352.65 931.96 365.37 931.96C371.05 931.96 376.33 929.96 378.57 925.4H378.73V931H385.53V873.88ZM353.53 910.68C353.53 902.6 356.65 894.68 365.93 894.68C375.29 894.68 378.97 902.2 378.97 910.36C378.97 918.12 375.45 925.96 366.33 925.96C357.53 925.96 353.53 918.44 353.53 910.68ZM392.152 910.36C392.152 922.44 399.112 931.96 412.232 931.96C425.352 931.96 432.312 922.44 432.312 910.36C432.312 898.2 425.352 888.68 412.232 888.68C399.112 888.68 392.152 898.2 392.152 910.36ZM399.352 910.36C399.352 900.28 405.112 894.68 412.232 894.68C419.352 894.68 425.112 900.28 425.112 910.36C425.112 920.36 419.352 925.96 412.232 925.96C405.112 925.96 399.352 920.36 399.352 910.36Z" fill="#203222"/>
</svg>
